<svg width="40" height="40" viewBox="0 0 40 40" fill="none" xmlns="http://www.w3.org/2000/svg">
<g clip-path="url(#clip0_3_3)">
<path d="M4 40H0V4H4V40Z" fill="currentColor"/>
<path d="M36 4H0V0H36V4Z" fill="currentColor"/>
<path d="M36 36V0H40V36H36Z" fill="currentColor"/>
<path d="M4 36V40H40V36H4Z" fill="currentColor"/>
<path d="M6 36V28H10V31H14V26H20V36H25V30H32V32H36V36H25H20H6Z" fill="currentColor"/>
<path d="M32 24H25V17H32V24Z" fill="currentColor"/>
<path d="M20 19H14V13H20V19Z" fill="currentColor"/>
<path d="M10 22H6V26H10V22Z" fill="currentColor"/>
</g>
<defs>
<clipPath id="clip0_3_3">
<rect width="40" height="40" fill="white"/>
</clipPath>
</defs>
</svg>
